<?xml version="1.0" encoding="UTF-8"?>
<!DOCTYPE svg PUBLIC "-//W3C//DTD SVG 1.0//EN" "http://www.w3.org/TR/2001/REC-SVG-20010904/DTD/svg10.dtd">
<!-- Creator: CorelDRAW X8 -->
<svg xmlns="http://www.w3.org/2000/svg" xml:space="preserve" width="400px" height="400px" version="1.0" style="shape-rendering:geometricPrecision; text-rendering:geometricPrecision; image-rendering:optimizeQuality; fill-rule:evenodd; clip-rule:evenodd"
viewBox="0 0 240 240"
 xmlns:xlink="http://www.w3.org/1999/xlink">
 <defs>
  <style type="text/css">
   <![CDATA[
    .fil3 {fill:none}
    .fil0 {fill:#233452}
    .fil1 {fill:#FF3333}
    .fil2 {fill:white}
   ]]>
  </style>
 </defs>
 <g id="Layer_x0020_1">
  <metadata id="CorelCorpID_0Corel-Layer"/>
  <g id="_2660080870736">
   <path class="fil0" d="M116 25l9 0c12,0 24,3 35,8 11,5 19,12 27,19 8,8 14,17 19,28 7,13 9,25 9,42l0 0c0,36 -23,70 -55,84 -14,7 -26,9 -43,9l0 0c-36,0 -69,-23 -84,-55 -6,-14 -8,-26 -8,-43l0 0c0,-14 4,-28 8,-37 5,-11 12,-20 19,-28 17,-17 40,-26 64,-27z"/>
   <path class="fil1" d="M39 120c0,-10 3,-25 8,-33 6,-13 7,-13 15,-23 3,-3 1,-1 4,-3 1,-1 1,-2 2,-3 19,-15 46,-22 70,-16 13,3 23,8 33,16 2,2 5,4 7,6 3,4 3,4 8,10 3,4 5,8 7,13 3,6 5,16 6,23 2,14 0,31 -6,43 -4,8 -6,11 -12,18 -1,1 -1,2 -2,3 -2,2 -1,1 -4,4 -3,3 -4,3 -9,8 -4,3 -9,5 -13,7 -19,9 -47,9 -66,0 -13,-7 -13,-7 -23,-15 -4,-4 -7,-8 -10,-12 -7,-10 -12,-24 -14,-37 0,-2 -1,-7 -1,-9z"/>
   <path class="fil2" d="M90 101l0 2c0,6 10,10 14,3 1,-3 1,-6 2,-9 4,-11 19,-13 26,-3 3,4 3,10 1,14 -4,10 -13,8 -17,10 -2,1 -4,3 -4,6l0 20c0,8 14,9 15,1 1,-3 0,-11 0,-14 2,0 7,-3 9,-4 12,-8 17,-24 11,-38 -7,-14 -24,-21 -39,-14 -4,1 -6,3 -9,6 -5,5 -9,12 -9,20z"/>
   <path class="fil2" d="M111 164c0,4 0,6 2,8 8,7 16,0 16,-6 0,-3 0,-5 -3,-8 -7,-6 -15,1 -15,6z"/>
  </g>
  <rect class="fil3" width="240" height="240"/>
 </g>
</svg>
